<?xml version="1.0" standalone="no"?>
<!DOCTYPE svg PUBLIC "-//W3C//DTD SVG 20010904//EN"
 "http://www.w3.org/TR/2001/REC-SVG-20010904/DTD/svg10.dtd">
<svg version="1.0" xmlns="http://www.w3.org/2000/svg"
 width="100.000000pt" height="100.000000pt" viewBox="0 0 100.000000 100.000000"
 preserveAspectRatio="xMidYMid meet">
<metadata>
Created by potrace 1.16, written by Peter Selinger 2001-2019
</metadata>
<g transform="translate(0.000000,100.000000) scale(0.100000,-0.100000)"
fill="#000000" stroke="none">
<path d="M331 879 c-33 -39 -34 -39 -108 -39 -75 0 -108 -10 -130 -39 -18 -23
-18 -579 0 -602 28 -37 49 -39 407 -39 358 0 379 2 407 39 18 23 18 579 0 602
-22 29 -55 39 -130 39 -74 0 -75 0 -111 40 l-36 40 -132 -1 -133 -1 -34 -39z
m288 -89 l32 -40 89 0 90 0 0 -250 0 -250 -330 0 -330 0 0 250 0 250 90 0 89
0 32 40 32 40 87 0 87 0 32 -40z"/>
<path d="M400 688 c-69 -37 -104 -94 -108 -176 -3 -56 0 -74 20 -112 37 -69
94 -104 176 -108 56 -3 74 0 112 20 69 37 104 94 108 176 3 56 0 74 -20 112
-37 69 -94 104 -176 108 -56 3 -74 0 -112 -20z m151 -83 c35 -19 69 -70 69
-105 0 -56 -65 -120 -122 -120 -53 0 -118 66 -118 120 0 54 65 120 118 120 13
0 36 -7 53 -15z"/>
</g>
</svg>
