<?xml version="1.0" standalone="no"?>
<!DOCTYPE svg PUBLIC "-//W3C//DTD SVG 20010904//EN"
 "http://www.w3.org/TR/2001/REC-SVG-20010904/DTD/svg10.dtd">
<svg version="1.0" xmlns="http://www.w3.org/2000/svg"
 width="100.000000pt" height="100.000000pt" viewBox="0 0 100.000000 100.000000"
 preserveAspectRatio="xMidYMid meet">

<g transform="translate(0.000000,100.000000) scale(0.100000,-0.100000)"
fill="#000000" stroke="none">
<path d="M480 913 c-23 -8 -40 -34 -40 -60 0 -18 -9 -28 -35 -38 -48 -21 -102
-71 -128 -119 -19 -36 -22 -60 -25 -202 l-4 -162 -39 -38 c-23 -22 -39 -47
-39 -61 0 -23 1 -23 125 -23 l125 0 0 -37 c1 -42 13 -63 48 -82 51 -27 112 17
112 81 l0 38 125 0 c124 0 125 0 125 23 0 14 -16 39 -39 61 l-39 38 -4 162
c-3 142 -6 166 -25 202 -26 48 -80 98 -128 119 -26 10 -35 20 -35 38 0 42 -42
73 -80 60z m83 -177 c41 -17 81 -62 96 -105 6 -19 11 -100 11 -187 l0 -154
-170 0 -170 0 0 154 c0 87 5 168 11 187 32 94 134 143 222 105z"/>
</g>
</svg>
