<?xml version="1.0" standalone="no"?>
<!DOCTYPE svg PUBLIC "-//W3C//DTD SVG 20010904//EN"
 "http://www.w3.org/TR/2001/REC-SVG-20010904/DTD/svg10.dtd">
<svg version="1.0" xmlns="http://www.w3.org/2000/svg"
 width="100.000000pt" height="100.000000pt" viewBox="0 0 100.000000 100.000000"
 preserveAspectRatio="xMidYMid meet">

<g transform="translate(0.000000,100.000000) scale(0.100000,-0.100000)"
fill="#000000" stroke="none">
<path d="M414 851 c-169 -103 -39 -369 144 -296 131 53 144 237 22 300 -41 21
-128 19 -166 -4z m141 -86 c75 -74 -35 -185 -112 -113 -50 47 -12 138 57 138
19 0 40 -9 55 -25z"/>
<path d="M287 376 c-73 -26 -130 -64 -148 -98 -6 -11 -12 -50 -13 -87 l-1 -66
375 0 c427 0 388 -10 375 94 -9 74 -53 117 -159 156 l-75 27 -31 -26 c-65 -54
-155 -54 -218 -1 -17 14 -31 25 -33 25 -2 0 -35 -11 -72 -24z m213 -121 c52 0
77 6 117 26 l51 27 43 -20 c51 -22 79 -46 79 -65 0 -11 -54 -13 -290 -13 -236
0 -290 2 -290 13 0 19 28 43 79 65 l43 20 51 -27 c40 -20 65 -26 117 -26z"/>
</g>
</svg>
