<?xml version="1.0" standalone="no"?>
<!DOCTYPE svg PUBLIC "-//W3C//DTD SVG 20010904//EN"
 "http://www.w3.org/TR/2001/REC-SVG-20010904/DTD/svg10.dtd">
<svg version="1.0" xmlns="http://www.w3.org/2000/svg"
 width="100.000000pt" height="100.000000pt" viewBox="0 0 100.000000 100.000000"
 preserveAspectRatio="xMidYMid meet">

<g transform="translate(0.000000,100.000000) scale(0.100000,-0.100000)"
fill="#000000" stroke="none">
<path d="M396 883 c-12 -65 -16 -71 -63 -98 -46 -25 -47 -25 -95 -9 -27 9 -51
14 -52 13 -2 -2 -24 -40 -50 -84 l-46 -80 40 -35 c38 -33 40 -38 40 -90 0 -52
-2 -57 -40 -90 l-40 -35 46 -80 c26 -44 48 -82 50 -84 1 -1 25 4 52 13 48 16
49 16 95 -9 47 -27 51 -33 63 -98 l6 -37 98 0 98 0 6 38 c12 64 16 70 63 97
46 25 47 25 95 9 27 -9 51 -14 52 -13 2 2 24 40 50 84 l46 80 -40 35 c-38 33
-40 38 -40 90 0 52 2 57 40 90 l40 35 -46 80 c-26 44 -48 82 -50 84 -1 1 -25
-4 -52 -13 -48 -16 -49 -16 -95 9 -47 27 -51 33 -63 98 l-6 37 -98 0 -98 0 -6
-37z m140 -92 c6 -35 11 -42 48 -56 22 -9 56 -28 74 -42 33 -24 56 -26 102 -9
9 4 20 -2 28 -15 12 -19 11 -25 -15 -53 -27 -29 -29 -36 -28 -118 0 -82 2 -89
29 -116 25 -27 26 -32 14 -51 -8 -13 -19 -19 -28 -15 -46 17 -69 15 -102 -9
-18 -14 -52 -33 -74 -42 -37 -14 -42 -21 -48 -56 -6 -35 -9 -39 -36 -39 -27 0
-30 4 -36 39 -6 35 -11 42 -48 56 -22 9 -56 28 -74 42 -33 24 -56 26 -102 9
-9 -4 -20 2 -28 15 -12 19 -11 24 14 50 26 28 28 35 29 120 0 89 -1 92 -29
116 -26 22 -28 26 -16 49 9 16 19 23 29 19 47 -18 70 -17 103 8 18 14 52 33
74 42 37 14 42 21 48 56 6 35 9 39 36 39 27 0 30 -4 36 -39z"/>
<path d="M445 655 c-114 -41 -147 -185 -61 -271 89 -89 243 -48 275 74 35 127
-90 242 -214 197z m112 -97 c51 -48 15 -138 -56 -138 -47 0 -81 32 -81 79 0
72 84 109 137 59z"/>
</g>
</svg>
